<?xml version="1.0" encoding="UTF-8"?>
<svg width="36px" height="16px" viewBox="0 0 36 16" version="1.1" xmlns="http://www.w3.org/2000/svg" xmlns:xlink="http://www.w3.org/1999/xlink">
    <!-- Generator: Sketch 41.2 (35397) - http://www.bohemiancoding.com/sketch -->
    <title>logo</title>
    <desc>Created with Sketch.</desc>
    <defs></defs>
    <g id="screens" stroke="none" stroke-width="1" fill="none" fill-rule="evenodd">
        <g id="Submit-link" transform="translate(-272.000000, -22.000000)" fill="#818181">
            <g id="nav-bar">
                <g id="logo" transform="translate(270.000000, 12.000000)">
                    <path d="M36.698835,12.7024007 C34.147165,11.3172588 31.4662956,10.3479582 28.5064561,10.4469454 C26.8112494,10.5041787 25.1696098,10.9138418 23.5283097,11.3045629 C22.6217417,11.5199857 21.7152417,11.7392783 20.8134262,11.9758156 C20.5383938,12.048189 20.2678424,12.0795553 19.9999388,12.0900107 C19.7322388,12.0800305 19.4616195,12.048189 19.1868587,11.9758156 C18.2847717,11.7392783 17.3785432,11.5199857 16.4717036,11.3045629 C14.8301998,10.9141813 13.1887639,10.5041787 11.4935572,10.4469454 C8.53344614,10.3479582 5.85264464,11.3175303 3.30117826,12.7024007 C2.13987781,13.3327821 1.83741692,13.8921481 2.07558365,14.9190893 C2.35883098,16.1402709 2.73617724,17.3486209 3.2774159,18.4748888 C3.7579587,19.4755557 4.28453259,20.4593853 4.87153076,21.4150395 C5.82222882,22.9619691 6.84984902,24.3583811 8.64438241,25.0028842 C9.73358108,25.3938769 10.8449806,25.6118795 11.9977266,25.5424934 C12.6398534,25.5035232 13.2216239,25.2287624 13.7949757,24.9445646 C14.3643897,24.6619283 14.9461601,24.4014249 15.458205,24.0196657 C15.9665838,23.6403505 16.5071435,23.2870382 16.9485123,22.8377938 C16.9485123,22.8377938 18.7742763,21.0607767 20.0000067,20.7877132 C21.226416,21.0611161 23.051501,22.8377938 23.051501,22.8377938 C23.4928698,23.2870382 24.0334974,23.6403505 24.5423514,24.0196657 C25.0540568,24.4014249 25.6364383,24.6615888 26.2055129,24.9445646 C26.7783894,25.2287624 27.3601599,25.5034553 28.002762,25.5424934 C29.155508,25.6118116 30.2667717,25.3938769 31.3561061,25.0028842 C33.1505037,24.3587206 34.1786671,22.9619691 35.1286183,21.4150395 C35.7157523,20.4597248 36.2420546,19.4756236 36.7227332,18.4748888 C37.2636324,17.3486209 37.6409787,16.1406104 37.9245654,14.9190893 C38.1624606,13.8921481 37.8598639,13.3327821 36.698835,12.7024007 Z M11.0295123,19.6131058 C8.72578547,18.8294911 7.53074246,16.2161747 7.53074246,16.2161747 C7.53074246,16.2161747 10.0710066,14.8739409 12.3747334,15.6572161 C14.6784602,16.4404914 15.873028,19.0538078 15.873028,19.0538078 C15.873028,19.0538078 13.3328996,20.3963811 11.0295123,19.6131058 Z M28.9706368,19.6131058 C26.6670458,20.3963811 24.1265101,19.0538757 24.1265101,19.0538757 C24.1265101,19.0538757 25.3216889,16.4405593 27.6255515,15.657284 C29.928803,14.8740087 32.4690672,16.2162426 32.4690672,16.2162426 C32.4690672,16.2162426 31.2745673,18.8294911 28.9706368,19.6131058 Z"></path>
                </g>
            </g>
        </g>
    </g>
</svg>