<?xml version="1.0" encoding="UTF-8"?>
<svg width="36px" height="16px" viewBox="0 0 36 16" version="1.1" xmlns="http://www.w3.org/2000/svg" xmlns:xlink="http://www.w3.org/1999/xlink">
    <!-- Generator: Sketch 41.2 (35397) - http://www.bohemiancoding.com/sketch -->
    <title>logo</title>
    <desc>Created with Sketch.</desc>
    <defs></defs>
    <g id="screens" stroke="none" stroke-width="1" fill="none" fill-rule="evenodd">
        <g id="Homepage" transform="translate(-50.000000, -22.000000)" fill="#FFFFFF">
            <g id="nav-bar">
                <g id="logo" transform="translate(50.000000, 12.000000)">
                    <g id="cover">
                        <path d="M34.698835,12.7024007 C32.147165,11.3172588 29.4662956,10.3479582 26.5064561,10.4469454 C24.8112494,10.5041787 23.1696098,10.9138418 21.5283097,11.3045629 C20.6217417,11.5199857 19.7152417,11.7392783 18.8134262,11.9758156 C18.5383938,12.048189 18.2678424,12.0795553 17.9999388,12.0900107 C17.7322388,12.0800305 17.4616195,12.048189 17.1868587,11.9758156 C16.2847717,11.7392783 15.3785432,11.5199857 14.4717036,11.3045629 C12.8301998,10.9141813 11.1887639,10.5041787 9.49355721,10.4469454 C6.53344614,10.3479582 3.85264464,11.3175303 1.30117826,12.7024007 C0.139877807,13.3327821 -0.162583083,13.8921481 0.0755836513,14.9190893 C0.358830976,16.1402709 0.736177245,17.3486209 1.2774159,18.4748888 C1.7579587,19.4755557 2.28453259,20.4593853 2.87153076,21.4150395 C3.82222882,22.9619691 4.84984902,24.3583811 6.64438241,25.0028842 C7.73358108,25.3938769 8.84498058,25.6118795 9.99772658,25.5424934 C10.6398534,25.5035232 11.2216239,25.2287624 11.7949757,24.9445646 C12.3643897,24.6619283 12.9461601,24.4014249 13.458205,24.0196657 C13.9665838,23.6403505 14.5071435,23.2870382 14.9485123,22.8377938 C14.9485123,22.8377938 16.7742763,21.0607767 18.0000067,20.7877132 C19.226416,21.0611161 21.051501,22.8377938 21.051501,22.8377938 C21.4928698,23.2870382 22.0334974,23.6403505 22.5423514,24.0196657 C23.0540568,24.4014249 23.6364383,24.6615888 24.2055129,24.9445646 C24.7783894,25.2287624 25.3601599,25.5034553 26.002762,25.5424934 C27.155508,25.6118116 28.2667717,25.3938769 29.3561061,25.0028842 C31.1505037,24.3587206 32.1786671,22.9619691 33.1286183,21.4150395 C33.7157523,20.4597248 34.2420546,19.4756236 34.7227332,18.4748888 C35.2636324,17.3486209 35.6409787,16.1406104 35.9245654,14.9190893 C36.1624606,13.8921481 35.8598639,13.3327821 34.698835,12.7024007 Z M9.02951227,19.6131058 C6.72578547,18.8294911 5.53074246,16.2161747 5.53074246,16.2161747 C5.53074246,16.2161747 8.07100658,14.8739409 10.3747334,15.6572161 C12.6784602,16.4404914 13.873028,19.0538078 13.873028,19.0538078 C13.873028,19.0538078 11.3328996,20.3963811 9.02951227,19.6131058 Z M26.9706368,19.6131058 C24.6670458,20.3963811 22.1265101,19.0538757 22.1265101,19.0538757 C22.1265101,19.0538757 23.3216889,16.4405593 25.6255515,15.657284 C27.928803,14.8740087 30.4690672,16.2162426 30.4690672,16.2162426 C30.4690672,16.2162426 29.2745673,18.8294911 26.9706368,19.6131058 Z" id="logo"></path>
                    </g>
                </g>
            </g>
        </g>
    </g>
</svg>