<?xml version="1.0" encoding="UTF-8"?>
<svg width="18px" height="18px" viewBox="0 0 18 18" version="1.1" xmlns="http://www.w3.org/2000/svg" xmlns:xlink="http://www.w3.org/1999/xlink">
    <!-- Generator: Sketch 41.2 (35397) - http://www.bohemiancoding.com/sketch -->
    <title>Shape</title>
    <desc>Created with Sketch.</desc>
    <defs></defs>
    <g id="screens" stroke="none" stroke-width="1" fill="none" fill-rule="evenodd">
        <g id="Verifying-link" transform="translate(-295.000000, -645.000000)" fill="#FFFFFF">
            <g id="keyword" transform="translate(194.000000, 484.000000)">
                <g id="links" transform="translate(0.000000, 53.000000)">
                    <g id="video" transform="translate(85.000000, 82.000000)">
                        <g id="ic_slideshow_black_24px" transform="translate(13.000000, 23.000000)">
                            <g id="Group">
                                <path d="M10,8 L10,16 L15,12 L10,8 Z M19,3 L5,3 C3.9,3 3,3.9 3,5 L3,19 C3,20.1 3.9,21 5,21 L19,21 C20.1,21 21,20.1 21,19 L21,5 C21,3.9 20.1,3 19,3 Z M19,19 L5,19 L5,5 L19,5 L19,19 Z" id="Shape"></path>
                            </g>
                        </g>
                    </g>
                </g>
            </g>
        </g>
    </g>
</svg>