<?xml version="1.0" encoding="UTF-8"?>
<svg width="20px" height="14px" viewBox="0 0 20 14" version="1.1" xmlns="http://www.w3.org/2000/svg" xmlns:xlink="http://www.w3.org/1999/xlink">
    <!-- Generator: Sketch 41.2 (35397) - http://www.bohemiancoding.com/sketch -->
    <title>wiki</title>
    <desc>Created with Sketch.</desc>
    <defs></defs>
    <g id="screens" stroke="none" stroke-width="1" fill="none" fill-rule="evenodd">
        <g id="Verifying-link" transform="translate(-294.000000, -730.000000)" fill="#FFFFFF">
            <g id="keyword" transform="translate(194.000000, 484.000000)">
                <g id="links" transform="translate(0.000000, 53.000000)">
                    <g id="wiki" transform="translate(85.000000, 164.000000)">
                        <g transform="translate(13.000000, 23.000000)">
                            <path d="M8.59509184,19.2010835 L9.46777072,19.2010835 L12.381451,13.5721458 L14.7784027,19.2010835 L15.6185725,19.2010835 L20.5983427,7.79107148 C20.8774963,7.1509716 21.4216691,6.76658324 22,6.67954749 L22,6 L17.9733567,6 L17.9733567,6.67978208 C18.5076355,6.79813663 19.0747766,6.9975447 19.3269572,7.55906607 L15.6703985,15.9583682 C15.0093817,14.5584063 14.3316392,13.0285946 13.6847567,11.5019499 C14.3524285,10.0893198 14.8977202,8.77721473 15.7168063,7.48774836 C16.1956784,6.72905933 16.9727619,6.71122991 17.3732354,6.67392887 L17.3732354,6.00004692 L13.0928804,6.00004692 L13.0928804,6.67392887 C13.6269236,6.67445672 14.7382376,6.72176335 14.2427105,7.75882603 L13.0013604,10.3580515 L11.6865117,7.46675187 C11.4818108,7.01655884 11.8794457,6.71662566 12.5285661,6.68088469 L12.5237958,6.00063341 L7.70657071,6.00063341 L7.70657071,6.67451536 C8.28051991,6.69329491 9.08973551,6.69023341 9.38844163,7.17485365 C10.308235,8.8575058 10.9231974,10.6053761 11.7617183,12.3209892 L9.59185861,16.3618177 L5.94472288,8.01271941 C5.53374284,7.07186525 6.50944941,6.768765 7.14331651,6.69017476 L7.13619044,6.00052784 L2,6.00052784 L2,6.6744098 C2.70919146,6.90792837 3.62403783,7.95859771 3.87939858,8.49031345 C5.79802001,12.4866856 6.76410344,15.1660262 8.5954452,19.2018107 L8.59509184,19.2010835 Z"></path>
                        </g>
                    </g>
                </g>
            </g>
        </g>
    </g>
</svg>